<?xml version="1.0" standalone="no"?>
<!DOCTYPE svg PUBLIC "-//W3C//DTD SVG 20010904//EN"
 "http://www.w3.org/TR/2001/REC-SVG-20010904/DTD/svg10.dtd">
<svg version="1.0" xmlns="http://www.w3.org/2000/svg"
 width="700.000000pt" height="700.000000pt" viewBox="0 0 700.000000 700.000000"
 preserveAspectRatio="xMidYMid meet">
<metadata>
Created by potrace 1.11, written by Peter Selinger 2001-2013
</metadata>
<g transform="translate(0.000000,700.000000) scale(0.100000,-0.100000)"
fill="#000000" stroke="none">
<path d="M3123 6985 c-810 -92 -1528 -437 -2098 -1009 -553 -554 -891 -1242
-997 -2028 -32 -235 -32 -651 0 -886 121 -899 543 -1663 1247 -2258 85 -73
262 -199 385 -275 369 -230 786 -389 1224 -469 379 -68 853 -68 1232 0 1397
253 2500 1316 2804 2702 56 254 74 432 74 733 1 341 -22 540 -98 852 -207 840
-727 1581 -1447 2064 -439 294 -922 479 -1464 560 -183 27 -674 35 -862 14z
m787 -924 c335 -51 602 -138 922 -299 l173 -87 3 -397 2 -398 -27 0 c-21 1
-56 25 -133 92 -199 172 -362 282 -555 374 -287 136 -567 194 -875 181 -228
-10 -387 -50 -585 -148 -356 -176 -613 -492 -758 -929 -92 -276 -126 -488
-134 -840 -10 -438 36 -755 154 -1060 200 -520 548 -852 1016 -970 209 -53
413 -60 662 -24 377 55 736 228 1065 513 85 74 122 100 143 101 l27 0 -2 -390
-3 -390 -188 -90 c-326 -155 -617 -253 -912 -307 -130 -23 -600 -29 -755 -9
-745 98 -1292 480 -1604 1119 -66 135 -137 322 -175 457 -133 481 -156 1153
-56 1680 77 407 245 783 485 1085 338 426 800 677 1377 750 161 21 557 13 733
-14z"/>
</g>
</svg>
